<svg xmlns="http://www.w3.org/2000/svg" width="210mm" height="210mm" viewBox="0 0 21000 21000" shape-rendering="geometricPrecision" text-rendering="geometricPrecision" image-rendering="optimizeQuality" fill-rule="evenodd" clip-rule="evenodd"><defs><style>.fil4{fill:#1c49bc}.fil3{fill:#609dd6}</style></defs><g id="Слой_x0020_1"><g id="_2630754056304"><path id="canvas_background" fill="#fff" fill-rule="nonzero" d="M5181.88 5181.88h10636.25v10636.25H5181.88z"/></g><path fill="#fefefe" stroke="#2b2a29" stroke-width="20" stroke-miterlimit="22.926" d="M60.17-25.45h20944.78v21124.91H60.17z"/><g id="_2630754053760"><g id="svg_52"><path id="svg_38" class="fil3" d="M10503.66 4720.38c567.89 0 1028.44 460.54 1028.44 1028.43 0 567.9-460.55 1028.44-1028.44 1028.44-567.88 0-1028.42-460.54-1028.42-1028.44 0-567.89 460.54-1028.43 1028.42-1028.43z"/><path id="svg_37" class="fil4" d="M10503.66 14237.02c567.89-.02 1028.44 460.52 1028.44 1028.42 0 567.89-460.55 1028.43-1028.44 1028.43-567.88 0-1028.42-460.54-1028.42-1028.43 0-567.9 460.54-1028.44 1028.42-1028.44v.02z"/><path id="svg_36" class="fil4" d="M5665.6 9506.96h.02c567.9 0 1028.44 460.54 1028.44 1028.42 0 567.9-460.54 1028.44-1028.44 1028.44-567.89 0-1028.43-460.54-1028.43-1028.44 0-567.88 460.54-1028.42 1028.43-1028.42h-.02z"/><path id="svg_35" class="fil4" d="M15320.11 9506.96c567.89 0 1028.43 460.54 1028.43 1028.42 0 567.9-460.54 1028.44-1028.43 1028.44-567.89 0-1028.43-460.54-1028.43-1028.44 0-567.88 460.54-1028.42 1028.43-1028.42z"/><path id="svg_34" class="fil4" d="M5773.58 7041.87s-118.79 1144.73 723.55 2181.44c842.35 1036.72 1812.49 1151.95 1812.49 1151.95s13.78-353.01 167.73-687.21c153.93-334.18 264.31-461.2 264.31-461.2s-624.63-133.14-1175.39-705.51c-550.77-572.36-496.77-1490.29-496.77-1490.29l-1295.92 10.8v.02z"/><path id="svg_33" class="fil4" d="M15199.28 7041.87s118.79 1144.73-723.55 2181.44c-842.33 1036.72-1812.49 1151.95-1812.49 1151.95s-13.77-353.01-167.71-687.21c-153.93-334.18-264.33-461.2-264.33-461.2s624.64-133.14 1175.4-705.51c550.77-572.36 496.77-1490.29 496.77-1490.29l1295.9 10.8.01.02z"/><path id="svg_32" class="fil4" d="M5773.58 13993.03s-118.79-1144.73 723.55-2181.45c842.35-1036.72 1812.49-1151.94 1812.49-1151.94s13.78 353 167.73 687.19c153.93 334.18 264.31 461.2 264.31 461.2s-624.63 133.14-1175.39 705.51c-550.77 572.36-496.77 1490.29-496.77 1490.29l-1295.92-10.79v-.01z"/><path id="svg_31" class="fil4" d="M15199.28 13993.03s118.79-1144.73-723.55-2181.45c-842.33-1036.72-1812.49-1151.94-1812.49-1151.94s-13.77 353-167.71 687.19c-153.93 334.18-264.33 461.2-264.33 461.2s624.64 133.14 1175.4 705.51c550.77 572.36 496.77 1490.29 496.77 1490.29l1295.9-10.79.01-.01z"/><path id="svg_30" class="fil4" d="M7010.86 15230.3s1144.73 118.79 2181.45-723.54c1036.71-842.34 1151.94-1812.5 1151.94-1812.5s-353.02-13.77-687.21-167.71c-334.18-153.93-461.2-264.33-461.2-264.33s-133.14 624.64-705.5 1175.41c-572.37 550.77-1490.3 496.77-1490.3 496.77l10.8 1295.92.02-.02z"/><path id="svg_29" class="fil3" d="M7010.86 5804.59s1144.73-118.79 2181.45 723.55c1036.71 842.33 1151.94 1812.49 1151.94 1812.49s-353.02 13.77-687.21 167.71c-334.18 153.93-461.2 264.33-461.2 264.33s-133.14-624.63-705.5-1175.41c-572.37-550.77-1490.3-496.77-1490.3-496.77l10.8-1295.92.02.02z"/><path id="svg_28" class="fil4" d="M13962.02 15230.3s-1144.73 118.79-2181.45-723.54c-1036.73-842.34-1151.95-1812.5-1151.95-1812.5s353.02-13.77 687.2-167.71c334.18-153.93 461.2-264.33 461.2-264.33s133.14 624.64 705.51 1175.41c572.36 550.77 1490.29 496.77 1490.29 496.77l-10.79 1295.92-.01-.02z"/><path id="svg_27" class="fil3" d="M13962.02 5804.59s-1144.73-118.79-2181.45 723.55c-1036.73 842.33-1151.95 1812.49-1151.95 1812.49s353.02 13.77 687.2 167.71c334.18 153.93 461.2 264.33 461.2 264.33s133.14-624.63 705.51-1175.41c572.36-550.77 1490.29-496.77 1490.29-496.77l-10.79-1295.92-.01.02z"/></g></g></g></svg>